<svg xmlns="http://www.w3.org/2000/svg" xmlns:xlink="http://www.w3.org/1999/xlink" width="500" zoomAndPan="magnify" viewBox="0 0 375 374.999991" height="500" preserveAspectRatio="xMidYMid meet" version="1.0"><path fill="#ad6042" d="M 238.652344 187.8125 C 238.652344 216.492188 215.464844 239.742188 186.859375 239.742188 C 158.253906 239.742188 135.066406 216.492188 135.066406 187.8125 C 135.066406 159.132812 158.253906 135.886719 186.859375 135.886719 C 215.464844 135.886719 238.652344 159.132812 238.652344 187.8125 Z M 238.652344 187.8125 " fill-opacity="1" fill-rule="nonzero"/><path fill="#806986" d="M 233.4375 187.8125 C 233.4375 213.605469 212.582031 234.515625 186.859375 234.515625 C 161.132812 234.515625 140.28125 213.605469 140.28125 187.8125 C 140.28125 162.023438 161.132812 141.113281 186.859375 141.113281 C 212.582031 141.113281 233.4375 162.023438 233.4375 187.8125 Z M 233.4375 187.8125 " fill-opacity="1" fill-rule="nonzero"/><path fill="#372b46" d="M 150.140625 164.238281 C 151.371094 162.507812 153.335938 161.617188 155.308594 161.6875 C 154.816406 160.804688 154.53125 159.792969 154.53125 158.710938 C 154.53125 155.34375 157.257812 152.613281 160.617188 152.613281 C 163.976562 152.613281 166.699219 155.34375 166.699219 158.710938 C 166.699219 162.082031 163.976562 164.8125 160.617188 164.8125 C 160.542969 164.8125 160.46875 164.804688 160.394531 164.800781 C 161.507812 166.796875 161.457031 169.335938 160.046875 171.320312 C 158.09375 174.0625 154.296875 174.699219 151.5625 172.746094 C 148.828125 170.789062 148.191406 166.980469 150.140625 164.238281 Z M 148.203125 184.273438 C 149.511719 184.273438 150.722656 183.855469 151.714844 183.152344 C 152.089844 184.390625 152.859375 185.527344 153.996094 186.335938 C 156.730469 188.292969 160.527344 187.65625 162.480469 184.914062 C 162.949219 184.253906 163.265625 183.535156 163.441406 182.792969 C 163.867188 183.757812 164.542969 184.632812 165.464844 185.292969 C 168.203125 187.246094 172 186.609375 173.949219 183.867188 C 175.902344 181.125 175.265625 177.316406 172.53125 175.359375 C 172.136719 175.078125 171.71875 174.855469 171.289062 174.683594 C 172.722656 173.566406 173.652344 171.824219 173.652344 169.867188 C 173.652344 166.496094 170.925781 163.765625 167.566406 163.765625 C 164.207031 163.765625 161.484375 166.496094 161.484375 169.867188 C 161.484375 172.417969 163.050781 174.601562 165.269531 175.511719 C 164.8125 175.867188 164.398438 176.289062 164.046875 176.785156 C 163.578125 177.445312 163.261719 178.164062 163.085938 178.90625 C 162.660156 177.9375 161.980469 177.066406 161.058594 176.40625 C 158.898438 174.863281 156.074219 174.941406 154.023438 176.394531 C 153.261719 173.894531 150.945312 172.078125 148.203125 172.078125 C 144.84375 172.078125 142.121094 174.808594 142.121094 178.175781 C 142.121094 181.542969 144.84375 184.273438 148.203125 184.273438 Z M 151.738281 187.730469 C 149.320312 185.390625 145.472656 185.453125 143.136719 187.875 C 140.800781 190.296875 140.867188 194.160156 143.28125 196.5 C 145.695312 198.839844 149.546875 198.777344 151.882812 196.355469 C 154.21875 193.933594 154.152344 190.070312 151.738281 187.730469 Z M 168.480469 190.296875 C 167.34375 191.4375 166.757812 192.917969 166.707031 194.410156 C 166.550781 192.703125 165.6875 191.074219 164.1875 190 C 161.453125 188.046875 157.652344 188.683594 155.703125 191.425781 C 154.257812 193.457031 154.234375 196.074219 155.433594 198.089844 C 154.441406 197.859375 153.378906 197.867188 152.332031 198.175781 C 149.109375 199.128906 147.269531 202.519531 148.21875 205.753906 C 149.167969 208.984375 152.550781 210.828125 155.773438 209.878906 C 158.996094 208.925781 160.835938 205.53125 159.886719 202.300781 C 159.738281 201.800781 159.527344 201.335938 159.269531 200.902344 C 161.601562 201.449219 164.132812 200.582031 165.609375 198.507812 C 166.320312 197.507812 166.683594 196.363281 166.730469 195.21875 C 166.863281 196.570312 167.449219 197.886719 168.480469 198.921875 C 170.855469 201.304688 174.707031 201.304688 177.082031 198.921875 C 179.460938 196.539062 179.460938 192.679688 177.082031 190.296875 C 174.707031 187.914062 170.855469 187.914062 168.480469 190.296875 Z M 165.703125 214.0625 C 167.324219 214.113281 168.957031 213.527344 170.195312 212.285156 C 172.570312 209.90625 172.570312 206.042969 170.195312 203.660156 C 167.820312 201.28125 163.96875 201.28125 161.589844 203.660156 C 159.238281 206.023438 159.21875 209.835938 161.53125 212.222656 C 159.574219 212.164062 157.625 213.054688 156.398438 214.777344 C 154.449219 217.519531 155.085938 221.328125 157.820312 223.28125 C 160.554688 225.238281 164.351562 224.601562 166.304688 221.859375 C 168.039062 219.417969 167.722656 216.136719 165.703125 214.0625 Z M 175.574219 203.609375 C 175.574219 206.976562 178.296875 209.707031 181.65625 209.707031 C 185.015625 209.707031 187.738281 206.976562 187.738281 203.609375 C 187.738281 200.242188 185.015625 197.511719 181.65625 197.511719 C 178.296875 197.511719 175.574219 200.242188 175.574219 203.609375 Z M 192.941406 219.570312 C 192.128906 219.472656 191.332031 219.550781 190.585938 219.761719 C 191.300781 218.761719 191.726562 217.539062 191.726562 216.21875 C 191.726562 212.847656 189.003906 210.117188 185.644531 210.117188 C 183.3125 210.117188 181.292969 211.429688 180.269531 213.359375 C 179.84375 212.550781 179.234375 211.828125 178.441406 211.261719 C 175.707031 209.304688 171.90625 209.941406 169.957031 212.683594 C 168.003906 215.425781 168.640625 219.234375 171.375 221.191406 C 171.539062 221.308594 171.707031 221.414062 171.878906 221.515625 C 171.421875 221.871094 171.007812 222.296875 170.652344 222.792969 C 168.703125 225.535156 169.335938 229.34375 172.070312 231.300781 C 174.808594 233.253906 178.605469 232.617188 180.558594 229.875 C 182.507812 227.132812 181.871094 223.324219 179.136719 221.367188 C 178.972656 221.25 178.804688 221.144531 178.632812 221.046875 C 179.089844 220.691406 179.507812 220.265625 179.859375 219.765625 C 180.015625 219.546875 180.152344 219.316406 180.273438 219.085938 C 181.296875 221.007812 183.316406 222.316406 185.644531 222.316406 C 186.21875 222.316406 186.773438 222.230469 187.300781 222.082031 C 186.71875 222.894531 186.328125 223.863281 186.203125 224.929688 C 185.820312 228.277344 188.214844 231.300781 191.550781 231.6875 C 194.890625 232.070312 197.90625 229.671875 198.289062 226.324219 C 198.675781 222.980469 196.28125 219.953125 192.941406 219.570312 Z M 141.195312 235.597656 C 142.320312 234.511719 143.03125 232.996094 143.0625 231.304688 C 143.117188 227.9375 140.4375 225.160156 137.082031 225.105469 C 133.722656 225.046875 130.953125 227.734375 130.894531 231.101562 C 130.851562 233.769531 132.523438 236.058594 134.890625 236.925781 C 133.496094 238.273438 132.761719 240.265625 133.105469 242.328125 C 133.660156 245.648438 136.796875 247.890625 140.109375 247.335938 C 143.425781 246.78125 145.660156 243.636719 145.105469 240.3125 C 144.734375 238.074219 143.183594 236.328125 141.195312 235.597656 Z M 152.695312 242.972656 C 149.382812 243.527344 147.144531 246.671875 147.699219 249.992188 C 148.253906 253.316406 151.390625 255.558594 154.703125 255.003906 C 158.015625 254.445312 160.253906 251.300781 159.699219 247.980469 C 159.144531 244.65625 156.007812 242.414062 152.695312 242.972656 Z M 241.113281 143.964844 C 240.558594 140.640625 237.421875 138.398438 234.109375 138.953125 C 230.796875 139.511719 228.558594 142.65625 229.113281 145.976562 C 229.667969 149.296875 232.804688 151.542969 236.117188 150.984375 C 239.429688 150.429688 241.667969 147.285156 241.113281 143.964844 Z M 251.523438 160.503906 C 250.96875 157.179688 247.835938 154.9375 244.519531 155.492188 C 241.207031 156.050781 238.972656 159.195312 239.523438 162.515625 C 240.078125 165.835938 243.214844 168.082031 246.527344 167.523438 C 249.84375 166.96875 252.078125 163.824219 251.523438 160.503906 Z M 213.207031 120.550781 C 211.375 120.519531 209.722656 121.308594 208.585938 122.570312 C 208.488281 122.476562 208.390625 122.382812 208.285156 122.292969 C 205.691406 120.148438 201.859375 120.519531 199.722656 123.117188 C 197.582031 125.714844 197.953125 129.5625 200.542969 131.703125 C 203.066406 133.789062 206.761719 133.488281 208.929688 131.074219 C 209.992188 132.085938 211.417969 132.722656 213 132.746094 C 216.359375 132.804688 219.128906 130.121094 219.1875 126.753906 C 219.242188 123.382812 216.5625 120.609375 213.207031 120.550781 Z M 133.308594 250.921875 C 130.714844 248.78125 126.882812 249.148438 124.742188 251.746094 C 122.605469 254.347656 122.972656 258.191406 125.566406 260.332031 C 128.15625 262.476562 131.992188 262.109375 134.128906 259.507812 C 136.265625 256.910156 135.898438 253.066406 133.308594 250.921875 Z M 243.433594 124 C 246.007812 121.835938 246.339844 117.988281 244.179688 115.410156 C 242.019531 112.828125 238.183594 112.492188 235.609375 114.660156 C 233.035156 116.828125 232.703125 120.675781 234.863281 123.253906 C 237.023438 125.832031 240.859375 126.167969 243.433594 124 Z M 243.433594 124 " fill-opacity="1" fill-rule="nonzero"/><path fill="#e8d09e" d="M 217.050781 217.699219 C 217.050781 223.085938 212.695312 227.457031 207.316406 227.457031 C 202.5 227.457031 198.503906 223.949219 197.726562 219.339844 C 193.007812 218.664062 189.382812 214.601562 189.382812 209.683594 C 189.382812 208.9375 189.46875 208.210938 189.628906 207.511719 C 187.167969 205.738281 185.558594 202.847656 185.558594 199.578125 C 185.558594 198.09375 185.890625 196.691406 186.480469 195.429688 C 185.609375 195.6875 184.6875 195.828125 183.730469 195.828125 C 178.355469 195.828125 174 191.460938 174 186.070312 C 174 183.425781 175.050781 181.027344 176.753906 179.269531 C 174.300781 177.5 172.699219 174.609375 172.699219 171.347656 C 172.699219 168.28125 174.109375 165.550781 176.3125 163.761719 C 171.03125 163.652344 166.785156 159.328125 166.785156 154.007812 C 166.785156 148.617188 171.144531 144.25 176.519531 144.25 C 181.894531 144.25 186.25 148.617188 186.25 154.007812 C 186.25 157.070312 184.839844 159.804688 182.636719 161.59375 C 187.917969 161.703125 192.164062 166.027344 192.164062 171.347656 C 192.164062 173.992188 191.113281 176.390625 189.410156 178.148438 C 191.863281 179.917969 193.464844 182.804688 193.464844 186.070312 C 193.464844 187.554688 193.132812 188.957031 192.542969 190.214844 C 193.414062 189.960938 194.335938 189.820312 195.292969 189.820312 C 200.667969 189.820312 205.027344 194.1875 205.027344 199.578125 C 205.027344 200.324219 204.9375 201.050781 204.78125 201.75 C 206.820312 203.21875 208.273438 205.457031 208.710938 208.039062 C 213.425781 208.71875 217.050781 212.78125 217.050781 217.699219 Z M 139.824219 245.628906 C 137.457031 246.027344 135.207031 244.417969 134.8125 242.042969 C 134.78125 241.851562 134.601562 241.722656 134.410156 241.757812 C 134.222656 241.789062 134.09375 241.96875 134.125 242.15625 C 134.539062 244.628906 136.683594 246.386719 139.105469 246.386719 C 139.378906 246.386719 139.660156 246.363281 139.941406 246.316406 C 140.128906 246.285156 140.257812 246.105469 140.226562 245.914062 C 140.195312 245.726562 140.015625 245.597656 139.824219 245.628906 Z M 149.566406 246.007812 C 148.761719 247.140625 148.457031 248.515625 148.714844 249.882812 C 148.746094 250.050781 148.890625 250.167969 149.054688 250.167969 C 149.078125 250.167969 149.097656 250.164062 149.121094 250.160156 C 149.308594 250.125 149.433594 249.945312 149.398438 249.753906 C 149.175781 248.574219 149.4375 247.390625 150.132812 246.414062 C 150.242188 246.257812 150.207031 246.039062 150.050781 245.925781 C 149.894531 245.816406 149.675781 245.851562 149.566406 246.007812 Z M 152.820312 182.050781 C 152.84375 182.050781 152.863281 182.050781 152.886719 182.046875 C 153.074219 182.011719 153.199219 181.828125 153.164062 181.640625 C 152.945312 180.460938 153.203125 179.273438 153.898438 178.296875 C 154.011719 178.140625 153.972656 177.921875 153.816406 177.8125 C 153.660156 177.699219 153.445312 177.734375 153.332031 177.890625 C 152.527344 179.023438 152.226562 180.402344 152.480469 181.769531 C 152.511719 181.933594 152.65625 182.050781 152.820312 182.050781 Z M 169.726562 198.839844 C 169.785156 198.878906 169.855469 198.898438 169.921875 198.898438 C 170.03125 198.898438 170.140625 198.847656 170.207031 198.75 C 170.316406 198.589844 170.277344 198.371094 170.117188 198.265625 C 169.128906 197.585938 168.476562 196.5625 168.28125 195.378906 C 168.25 195.191406 168.070312 195.058594 167.878906 195.09375 C 167.691406 195.125 167.5625 195.304688 167.59375 195.496094 C 167.824219 196.867188 168.582031 198.054688 169.726562 198.839844 Z M 168.6875 203.800781 C 168.53125 203.6875 168.316406 203.722656 168.203125 203.878906 C 168.09375 204.035156 168.128906 204.253906 168.285156 204.367188 C 169.230469 205.042969 169.859375 206.050781 170.050781 207.199219 C 170.242188 208.351562 169.976562 209.507812 169.300781 210.457031 C 169.191406 210.613281 169.226562 210.832031 169.382812 210.945312 C 169.445312 210.988281 169.515625 211.007812 169.585938 211.007812 C 169.691406 211.007812 169.800781 210.957031 169.867188 210.863281 C 170.652344 209.761719 170.960938 208.421875 170.738281 207.085938 C 170.515625 205.753906 169.785156 204.585938 168.6875 203.800781 Z M 159.898438 153.398438 C 158.566406 153.621094 157.402344 154.351562 156.621094 155.453125 C 156.507812 155.609375 156.546875 155.828125 156.703125 155.9375 C 156.761719 155.984375 156.832031 156.003906 156.902344 156.003906 C 157.011719 156.003906 157.117188 155.953125 157.1875 155.859375 C 158.582031 153.898438 161.304688 153.441406 163.261719 154.839844 C 163.417969 154.949219 163.636719 154.914062 163.746094 154.757812 C 163.859375 154.601562 163.820312 154.382812 163.664062 154.269531 C 162.566406 153.484375 161.230469 153.175781 159.898438 153.398438 Z M 189.3125 222.683594 C 189.441406 222.539062 189.429688 222.320312 189.289062 222.191406 C 189.144531 222.0625 188.925781 222.070312 188.796875 222.214844 C 186.929688 224.289062 187.09375 227.496094 189.160156 229.367188 C 189.226562 229.429688 189.3125 229.457031 189.394531 229.457031 C 189.488281 229.457031 189.585938 229.417969 189.652344 229.34375 C 189.78125 229.199219 189.769531 228.980469 189.628906 228.851562 C 187.84375 227.238281 187.703125 224.46875 189.3125 222.683594 Z M 155.453125 208.214844 C 154.3125 208.574219 153.105469 208.457031 152.054688 207.886719 C 151.886719 207.792969 151.675781 207.855469 151.582031 208.023438 C 151.492188 208.195312 151.554688 208.40625 151.722656 208.496094 C 152.476562 208.910156 153.296875 209.117188 154.128906 209.117188 C 154.640625 209.117188 155.15625 209.039062 155.660156 208.878906 C 155.84375 208.820312 155.945312 208.625 155.886719 208.441406 C 155.832031 208.257812 155.636719 208.15625 155.453125 208.214844 Z M 136.953125 236.28125 C 137.144531 236.28125 137.300781 236.125 137.300781 235.929688 C 137.300781 235.738281 137.144531 235.582031 136.953125 235.582031 C 136.945312 235.585938 136.941406 235.582031 136.9375 235.582031 C 135.746094 235.582031 134.636719 235.113281 133.808594 234.253906 C 133.671875 234.113281 133.453125 234.113281 133.316406 234.246094 C 133.175781 234.378906 133.175781 234.597656 133.308594 234.738281 C 134.269531 235.734375 135.554688 236.28125 136.9375 236.28125 C 136.941406 236.28125 136.949219 236.28125 136.953125 236.28125 Z M 235.832031 149.277344 C 233.460938 149.675781 231.214844 148.066406 230.816406 145.691406 C 230.785156 145.5 230.605469 145.371094 230.417969 145.40625 C 230.226562 145.4375 230.101562 145.617188 230.132812 145.804688 C 230.542969 148.277344 232.6875 150.035156 235.109375 150.035156 C 235.386719 150.035156 235.667969 150.011719 235.945312 149.964844 C 236.136719 149.933594 236.265625 149.753906 236.230469 149.5625 C 236.199219 149.375 236.019531 149.246094 235.832031 149.277344 Z M 241.878906 158.449219 C 241.71875 158.335938 241.503906 158.375 241.390625 158.53125 C 240.585938 159.664062 240.285156 161.039062 240.539062 162.40625 C 240.570312 162.574219 240.71875 162.691406 240.878906 162.691406 C 240.902344 162.691406 240.921875 162.6875 240.945312 162.683594 C 241.132812 162.648438 241.257812 162.464844 241.222656 162.277344 C 241.003906 161.097656 241.261719 159.910156 241.957031 158.933594 C 242.070312 158.777344 242.03125 158.5625 241.878906 158.449219 Z M 217.820312 126.328125 C 217.625 126.328125 217.472656 126.484375 217.472656 126.675781 C 217.476562 127.875 217.003906 128.996094 216.144531 129.828125 C 216.007812 129.964844 216.003906 130.183594 216.136719 130.320312 C 216.207031 130.394531 216.296875 130.429688 216.386719 130.429688 C 216.472656 130.429688 216.5625 130.394531 216.628906 130.332031 C 217.625 129.363281 218.171875 128.066406 218.167969 126.675781 C 218.167969 126.484375 218.011719 126.328125 217.820312 126.328125 Z M 128.953125 250.585938 C 127.609375 250.714844 126.398438 251.363281 125.539062 252.40625 C 125.417969 252.554688 125.4375 252.773438 125.585938 252.898438 C 125.652344 252.949219 125.730469 252.976562 125.808594 252.976562 C 125.90625 252.976562 126.007812 252.933594 126.078125 252.851562 C 126.816406 251.949219 127.863281 251.394531 129.019531 251.28125 C 130.179688 251.171875 131.3125 251.519531 132.207031 252.261719 C 132.355469 252.382812 132.574219 252.363281 132.699219 252.214844 C 132.820312 252.0625 132.796875 251.84375 132.652344 251.722656 C 131.609375 250.859375 130.292969 250.457031 128.953125 250.585938 Z M 208.789062 126.59375 C 208.804688 126.777344 208.957031 126.910156 209.132812 126.910156 C 209.144531 126.910156 209.15625 126.910156 209.167969 126.910156 C 209.359375 126.890625 209.5 126.71875 209.480469 126.527344 C 209.347656 125.144531 208.675781 123.90625 207.589844 123.042969 C 207.4375 122.925781 207.222656 122.949219 207.101562 123.101562 C 206.980469 123.25 207.007812 123.46875 207.15625 123.589844 C 208.09375 124.335938 208.675781 125.402344 208.789062 126.59375 Z M 239.980469 114.25 C 238.601562 114.128906 237.261719 114.566406 236.21875 115.480469 C 236.074219 115.609375 236.058594 115.828125 236.1875 115.972656 C 236.253906 116.050781 236.351562 116.09375 236.449219 116.09375 C 236.527344 116.09375 236.609375 116.0625 236.675781 116.007812 C 237.578125 115.21875 238.730469 114.839844 239.921875 114.945312 C 240.109375 114.960938 240.28125 114.820312 240.296875 114.625 C 240.3125 114.433594 240.171875 114.265625 239.980469 114.25 Z M 239.980469 114.25 " fill-opacity="1" fill-rule="nonzero"/><path fill="#ebbb6f" d="M 176.605469 153.3125 C 176.125 153.3125 175.734375 152.921875 175.734375 152.441406 L 175.734375 150.347656 C 175.734375 149.867188 176.125 149.476562 176.605469 149.476562 C 177.085938 149.476562 177.472656 149.867188 177.472656 150.347656 L 177.472656 152.441406 C 177.472656 152.921875 177.085938 153.3125 176.605469 153.3125 Z M 178.0625 155.882812 L 179.925781 156.824219 C 180.351562 157.042969 180.875 156.871094 181.089844 156.441406 C 181.308594 156.011719 181.136719 155.488281 180.707031 155.269531 L 178.847656 154.328125 C 178.417969 154.109375 177.898438 154.28125 177.679688 154.710938 C 177.464844 155.140625 177.636719 155.664062 178.0625 155.882812 Z M 175.53125 154.710938 C 175.3125 154.28125 174.789062 154.109375 174.363281 154.328125 L 172.5 155.269531 C 172.074219 155.488281 171.902344 156.011719 172.117188 156.441406 C 172.335938 156.871094 172.859375 157.042969 173.285156 156.824219 L 175.148438 155.882812 C 175.574219 155.664062 175.746094 155.140625 175.53125 154.710938 Z M 183.386719 169.777344 L 183.386719 167.6875 C 183.386719 167.207031 183 166.816406 182.519531 166.816406 C 182.039062 166.816406 181.648438 167.207031 181.648438 167.6875 L 181.648438 169.777344 C 181.648438 170.261719 182.039062 170.652344 182.519531 170.652344 C 183 170.652344 183.386719 170.261719 183.386719 169.777344 Z M 183.976562 173.222656 L 185.835938 174.164062 C 186.265625 174.382812 186.789062 174.210938 187.003906 173.78125 C 187.222656 173.351562 187.050781 172.828125 186.621094 172.609375 L 184.761719 171.667969 C 184.332031 171.449219 183.808594 171.621094 183.59375 172.050781 C 183.375 172.480469 183.546875 173.003906 183.976562 173.222656 Z M 181.445312 172.050781 C 181.226562 171.621094 180.703125 171.449219 180.277344 171.667969 L 178.414062 172.609375 C 177.988281 172.828125 177.816406 173.351562 178.03125 173.78125 C 178.25 174.210938 178.773438 174.382812 179.199219 174.164062 L 181.058594 173.222656 C 181.488281 173.003906 181.660156 172.480469 181.445312 172.050781 Z M 184.109375 184.144531 L 182.9375 182.414062 C 182.664062 182.019531 182.125 181.914062 181.726562 182.1875 C 181.332031 182.457031 181.230469 183 181.5 183.398438 L 182.671875 185.125 C 182.945312 185.523438 183.484375 185.625 183.882812 185.355469 C 184.277344 185.082031 184.378906 184.542969 184.109375 184.144531 Z M 186.53125 186.65625 L 188.597656 186.386719 C 189.074219 186.324219 189.410156 185.886719 189.347656 185.410156 C 189.285156 184.933594 188.847656 184.597656 188.371094 184.660156 L 186.304688 184.929688 C 185.828125 184.992188 185.492188 185.425781 185.554688 185.90625 C 185.617188 186.382812 186.054688 186.71875 186.53125 186.65625 Z M 183.777344 187.117188 C 183.359375 186.886719 182.828125 187.039062 182.597656 187.460938 L 181.589844 189.289062 C 181.359375 189.710938 181.511719 190.242188 181.929688 190.476562 C 182.351562 190.707031 182.878906 190.554688 183.113281 190.132812 L 184.121094 188.300781 C 184.351562 187.882812 184.199219 187.351562 183.777344 187.117188 Z M 196.25 198.007812 L 196.25 195.917969 C 196.25 195.4375 195.859375 195.046875 195.378906 195.046875 C 194.898438 195.046875 194.511719 195.4375 194.511719 195.917969 L 194.511719 198.007812 C 194.511719 198.488281 194.898438 198.878906 195.378906 198.878906 C 195.859375 198.878906 196.25 198.488281 196.25 198.007812 Z M 196.835938 201.449219 L 198.699219 202.394531 C 199.125 202.613281 199.648438 202.441406 199.867188 202.011719 C 200.082031 201.582031 199.910156 201.058594 199.484375 200.839844 L 197.621094 199.894531 C 197.195312 199.679688 196.671875 199.851562 196.453125 200.28125 C 196.238281 200.710938 196.410156 201.234375 196.835938 201.449219 Z M 194.304688 200.28125 C 194.089844 199.851562 193.566406 199.679688 193.136719 199.894531 L 191.277344 200.839844 C 190.847656 201.058594 190.675781 201.582031 190.894531 202.011719 C 191.109375 202.441406 191.632812 202.613281 192.0625 202.394531 L 193.921875 201.449219 C 194.351562 201.234375 194.519531 200.710938 194.304688 200.28125 Z M 200.074219 208.117188 L 200.074219 206.023438 C 200.074219 205.542969 199.683594 205.152344 199.203125 205.152344 C 198.722656 205.152344 198.335938 205.542969 198.335938 206.023438 L 198.335938 208.117188 C 198.335938 208.597656 198.722656 208.988281 199.203125 208.988281 C 199.683594 208.988281 200.074219 208.597656 200.074219 208.117188 Z M 200.660156 211.558594 L 202.523438 212.5 C 202.949219 212.71875 203.472656 212.546875 203.691406 212.117188 C 203.90625 211.6875 203.734375 211.164062 203.308594 210.945312 L 201.445312 210.003906 C 201.019531 209.785156 200.496094 209.957031 200.277344 210.386719 C 200.0625 210.816406 200.234375 211.339844 200.660156 211.558594 Z M 198.128906 210.386719 C 197.910156 209.957031 197.390625 209.785156 196.960938 210.003906 L 195.101562 210.945312 C 194.671875 211.164062 194.5 211.6875 194.71875 212.117188 C 194.933594 212.546875 195.457031 212.71875 195.882812 212.5 L 197.746094 211.558594 C 198.171875 211.339844 198.34375 210.816406 198.128906 210.386719 Z M 208.273438 216.128906 L 208.273438 214.039062 C 208.273438 213.558594 207.886719 213.167969 207.40625 213.167969 C 206.925781 213.167969 206.535156 213.558594 206.535156 214.039062 L 206.535156 216.128906 C 206.535156 216.609375 206.925781 217 207.40625 217 C 207.882812 217 208.273438 216.609375 208.273438 216.128906 Z M 208.863281 219.570312 L 210.722656 220.515625 C 211.152344 220.734375 211.675781 220.5625 211.890625 220.132812 C 212.109375 219.703125 211.9375 219.179688 211.507812 218.960938 L 209.648438 218.015625 C 209.21875 217.800781 208.695312 217.972656 208.480469 218.402344 C 208.261719 218.832031 208.433594 219.355469 208.863281 219.570312 Z M 206.328125 218.402344 C 206.113281 217.972656 205.589844 217.800781 205.164062 218.015625 L 203.300781 218.960938 C 202.875 219.179688 202.703125 219.703125 202.917969 220.132812 C 203.136719 220.5625 203.65625 220.734375 204.085938 220.515625 L 205.945312 219.570312 C 206.375 219.355469 206.546875 218.832031 206.328125 218.402344 Z M 206.328125 218.402344 " fill-opacity="1" fill-rule="nonzero"/></svg>