<svg xmlns="http://www.w3.org/2000/svg" xmlns:xlink="http://www.w3.org/1999/xlink" width="500" zoomAndPan="magnify" viewBox="0 0 375 374.999991" height="500" preserveAspectRatio="xMidYMid meet" version="1.0"><defs><clipPath id="4a93a2b3f4"><path d="M 183.246094 183.796875 L 191.496094 183.796875 L 191.496094 191.296875 L 183.246094 191.296875 Z M 183.246094 183.796875 " clip-rule="nonzero"/></clipPath><clipPath id="d9a73f1d73"><path d="M 194 190 L 262.5 190 L 262.5 228.339844 L 194 228.339844 Z M 194 190 " clip-rule="nonzero"/></clipPath><clipPath id="03cfcf5e5b"><path d="M 112.5 190 L 181 190 L 181 228.339844 L 112.5 228.339844 Z M 112.5 190 " clip-rule="nonzero"/></clipPath></defs><g clip-path="url(#4a93a2b3f4)"><path fill="#000000" d="M 186.886719 184.128906 C 186.449219 184.925781 185.371094 186.917969 184.503906 188.519531 L 183.355469 190.636719 C 183.25 190.824219 183.289062 190.976562 183.320312 191.046875 C 183.386719 191.195312 183.527344 191.269531 183.632812 191.289062 L 183.65625 191.292969 L 191.058594 191.292969 L 191.042969 191.292969 C 191.160156 191.300781 191.316406 191.253906 191.398438 191.109375 C 191.453125 191.019531 191.492188 190.859375 191.371094 190.636719 L 189.078125 186.457031 L 187.808594 184.148438 C 187.648438 183.859375 187.464844 183.796875 187.339844 183.796875 C 187.214844 183.796875 187.035156 183.855469 186.886719 184.128906 Z M 184.953125 188.792969 C 185.820312 187.191406 186.898438 185.199219 187.335938 184.40625 L 187.339844 184.394531 C 187.347656 184.40625 187.351562 184.414062 187.359375 184.425781 L 188.628906 186.734375 C 188.628906 186.734375 190.652344 190.425781 190.824219 190.742188 L 183.898438 190.742188 L 184.953125 188.792969 " fill-opacity="1" fill-rule="evenodd"/></g><path fill="#000000" d="M 187.371094 190.339844 C 187.59375 190.339844 187.777344 190.144531 187.777344 189.902344 C 187.777344 189.660156 187.59375 189.464844 187.371094 189.464844 C 187.144531 189.464844 186.964844 189.660156 186.964844 189.902344 C 186.964844 190.144531 187.144531 190.339844 187.371094 190.339844 " fill-opacity="1" fill-rule="evenodd"/><path fill="#000000" d="M 187.371094 186.046875 C 187.695312 186.046875 187.992188 186.367188 187.957031 186.679688 L 187.679688 188.882812 C 187.652344 189.078125 187.539062 189.21875 187.371094 189.21875 C 187.199219 189.21875 187.085938 189.078125 187.058594 188.882812 L 186.78125 186.679688 C 186.746094 186.367188 187.046875 186.046875 187.371094 186.046875 " fill-opacity="1" fill-rule="evenodd"/><g clip-path="url(#d9a73f1d73)"><path stroke-linecap="round" transform="matrix(0.074102, 0, 0, -0.074102, 29.959185, 347.77779)" fill="none" stroke-linejoin="round" d="M 2232.483257 1796.622036 L 2505.597146 1796.622036 L 2638.806719 2110.589673 L 2714.188472 1626.775877 L 2869.590855 2057.40073 L 2896.211684 1795.515032 L 3118.087067 1795.515032 " stroke="#24578f" stroke-width="30" stroke-opacity="1" stroke-miterlimit="10"/></g><g clip-path="url(#03cfcf5e5b)"><path stroke-linecap="round" transform="matrix(0.074102, 0, 0, -0.074102, 29.959185, 347.77779)" fill="none" stroke-linejoin="round" d="M 2019.516627 1796.622036 L 1746.402737 1796.622036 L 1613.193164 2110.589673 L 1537.811411 1626.775877 L 1382.409029 2057.40073 L 1355.7882 1795.515032 L 1133.912817 1795.515032 " stroke="#24578f" stroke-width="30" stroke-opacity="1" stroke-miterlimit="10"/></g><path fill="#c25a51" d="M 204.15625 211.628906 C 205.988281 209.414062 220.066406 186.414062 222.023438 183.277344 C 224.410156 179.441406 225.964844 175.335938 225.980469 170.753906 C 225.996094 164.226562 223.03125 157.890625 217.976562 153.765625 C 212.570312 149.332031 205.226562 147.738281 198.472656 149.539062 C 194.140625 150.695312 190.210938 153.195312 187.335938 156.632812 C 182.898438 151.324219 176.027344 148.398438 169.136719 148.84375 C 162.261719 149.289062 155.828125 153.089844 152.132812 158.898438 C 148.640625 164.375 147.75 171.296875 149.773438 177.46875 C 150.761719 180.476562 152.515625 183.070312 154.175781 185.730469 C 158.636719 192.910156 168.34375 208.523438 168.738281 209.15625 C 170.773438 212.429688 173.664062 215.148438 177.074219 216.957031 C 184.054688 220.679688 192.738281 220.269531 199.339844 215.929688 C 201.148438 214.734375 202.773438 213.289062 204.15625 211.628906 C 204.195312 211.578125 203.90625 211.933594 204.15625 211.628906 " fill-opacity="1" fill-rule="nonzero"/><path stroke-linecap="round" transform="matrix(0.074102, 0, 0, -0.074102, 29.959185, 347.77779)" fill="none" stroke-linejoin="round" d="M 2350.774623 1837.31764 C 2375.497729 1867.206769 2565.480832 2177.589818 2591.890803 2219.919572 C 2624.09937 2271.685223 2645.079746 2327.088176 2645.290604 2388.922299 C 2645.501462 2477.008249 2605.491147 2562.511188 2537.278568 2618.177714 C 2464.321683 2678.008685 2365.218399 2699.516206 2274.075007 2675.214816 C 2215.614613 2659.61132 2162.583813 2625.874032 2123.785932 2579.485261 C 2063.902246 2651.124284 1971.177419 2690.607454 1878.189019 2684.597999 C 1785.411477 2678.588545 1698.590674 2627.297324 1648.722746 2548.910844 C 1601.595971 2475.005098 1589.577063 2381.594982 1616.88318 2298.306052 C 1630.219952 2257.715877 1653.888768 2222.713441 1676.292436 2186.814858 C 1736.492409 2089.925584 1867.487972 1879.225677 1872.812138 1870.685926 C 1900.276399 1826.511165 1939.285138 1789.821864 1985.304908 1765.415045 C 2079.505742 1715.178115 2196.690103 1720.713138 2285.777629 1779.278962 C 2310.184448 1795.409603 2332.113686 1814.913972 2350.774623 1837.31764 C 2351.301768 1838.002929 2347.400894 1833.205908 2350.774623 1837.31764 Z M 2350.774623 1837.31764 " stroke="#24578f" stroke-width="30" stroke-opacity="1" stroke-miterlimit="10"/><path stroke-linecap="round" transform="matrix(0.074102, 0, 0, -0.074102, 29.959185, 347.77779)" fill="none" stroke-linejoin="round" d="M 2312.1876 1868.682775 L 2568.590989 2287.815864 C 2568.590989 2287.815864 2645.290604 2550.281421 2391.417512 2631.988916 " stroke="#ffffff" stroke-width="30" stroke-opacity="1" stroke-miterlimit="10"/><path stroke-linecap="round" transform="matrix(0.074102, 0, 0, -0.074102, 29.959185, 347.77779)" fill="none" stroke-linejoin="round" d="M 1853.887628 2631.988916 C 1853.887628 2631.988916 1993.001227 2685.177859 2089.310641 2546.591406 " stroke="#ffffff" stroke-width="30" stroke-opacity="1" stroke-miterlimit="10"/></svg>