<svg xmlns="http://www.w3.org/2000/svg" xmlns:xlink="http://www.w3.org/1999/xlink" width="500" zoomAndPan="magnify" viewBox="0 0 375 374.999991" height="500" preserveAspectRatio="xMidYMid meet" version="1.0"><defs><clipPath id="bcd3bbfbe8"><path d="M 112.5 113 L 262.5 113 L 262.5 262.5 L 112.5 262.5 Z M 112.5 113 " clip-rule="nonzero"/></clipPath><clipPath id="436d9b17a0"><path d="M 130.578125 272 L 158 272 L 158 299 L 130.578125 299 Z M 130.578125 272 " clip-rule="nonzero"/></clipPath><clipPath id="8adcb9144c"><path d="M 132 269.90625 L 162 269.90625 L 162 299 L 132 299 Z M 132 269.90625 " clip-rule="nonzero"/></clipPath><clipPath id="1f8266a5e8"><path d="M 174 269.90625 L 203 269.90625 L 203 299 L 174 299 Z M 174 269.90625 " clip-rule="nonzero"/></clipPath><clipPath id="de5774ecb9"><path d="M 215 269.90625 L 244.578125 269.90625 L 244.578125 299 L 215 299 Z M 215 269.90625 " clip-rule="nonzero"/></clipPath></defs><g clip-path="url(#bcd3bbfbe8)"><path fill="#000000" d="M 181.660156 114.988281 C 177.542969 117.511719 170.90625 130.054688 169.3125 138.351562 C 168.78125 141.339844 168.320312 142.203125 167.457031 142.203125 C 166.792969 142.203125 166.261719 142.46875 166.261719 142.863281 C 166.261719 143.195312 166.726562 143.527344 167.257812 143.527344 C 168.453125 143.527344 168.585938 145.984375 167.457031 146.316406 C 166.859375 146.515625 166.925781 146.914062 167.789062 147.777344 C 168.386719 148.441406 168.914062 149.503906 168.914062 150.230469 C 168.914062 150.960938 169.246094 152.222656 169.644531 152.953125 C 170.308594 154.214844 170.109375 154.679688 167.722656 156.738281 C 166.195312 158.0625 164.667969 159.988281 164.269531 161.117188 L 163.539062 163.042969 L 162.210938 160.984375 C 161.480469 159.855469 160.023438 158.59375 158.894531 158.128906 C 157.101562 157.402344 156.636719 157.46875 155.109375 158.59375 C 150.863281 161.78125 148.273438 170.476562 148.140625 182.15625 C 148.007812 189.191406 147.875 189.988281 146.679688 190.585938 C 145.421875 191.183594 145.421875 191.25 146.878906 191.25 C 148.472656 191.316406 149.800781 193.375 148.472656 193.839844 C 148.007812 193.972656 147.675781 194.371094 147.675781 194.769531 C 147.675781 195.164062 148.074219 195.296875 148.605469 195.097656 C 149.203125 194.835938 149.867188 195.429688 150.332031 196.625 C 151.328125 199.015625 156.371094 203.726562 158.496094 204.257812 C 160.023438 204.65625 160.023438 204.789062 159.292969 207.578125 C 158.894531 209.171875 157.964844 211.160156 157.167969 212.023438 C 153.71875 215.875 153.453125 219.058594 156.304688 221.980469 C 157.367188 223.042969 158.296875 224.371094 158.296875 224.835938 C 158.296875 226.625 157.433594 227.820312 156.238281 227.820312 C 155.574219 227.820312 154.976562 228.085938 154.976562 228.484375 C 154.976562 228.816406 155.574219 229.148438 156.304688 229.148438 C 157.167969 229.148438 157.632812 229.613281 157.632812 230.476562 C 157.632812 231.207031 157.167969 231.804688 156.636719 231.804688 C 156.105469 231.804688 155.640625 232.070312 155.640625 232.46875 C 155.640625 232.796875 156.105469 233.128906 156.636719 233.128906 C 157.234375 233.128906 157.632812 233.726562 157.632812 234.789062 C 157.632812 237.113281 159.09375 240.363281 161.28125 242.953125 L 163.074219 245.078125 L 161.679688 248.0625 C 160.886719 249.722656 160.289062 251.183594 160.289062 251.449219 C 160.289062 251.648438 159.425781 252.578125 158.296875 253.507812 C 157.234375 254.371094 156.304688 255.695312 156.304688 256.425781 C 156.304688 257.089844 156.039062 257.6875 155.640625 257.6875 C 154.84375 257.6875 154.710938 255.097656 154.976562 246.671875 C 155.109375 240.164062 154.445312 237.777344 152.324219 237.777344 C 149.734375 237.777344 148.738281 240.695312 148.472656 249.457031 L 148.207031 257.6875 L 130.355469 257.820312 C 119.003906 257.953125 112.5 258.285156 112.5 258.683594 C 112.5 259.082031 120.332031 259.414062 134.203125 259.546875 C 151.859375 259.679688 156.371094 259.878906 158.097656 260.675781 C 160.6875 261.9375 166.726562 261.9375 168.914062 260.675781 C 170.175781 259.945312 173.5625 259.746094 183.453125 259.679688 C 194.800781 259.679688 196.527344 259.8125 197.65625 260.875 C 199.445312 262.46875 208.074219 262.46875 209.867188 260.875 C 211.0625 259.8125 213.519531 259.679688 236.8125 259.546875 C 253.40625 259.414062 262.5 259.082031 262.5 258.683594 C 262.5 258.285156 253.40625 257.953125 236.945312 257.820312 L 211.328125 257.6875 L 210.730469 256.09375 C 210 254.105469 207.609375 252.378906 205.621094 252.378906 C 204.757812 252.378906 204.09375 252.246094 204.09375 252.046875 C 204.09375 251.847656 205.886719 249.921875 208.007812 247.796875 C 210.199219 245.675781 212.191406 243.152344 212.457031 242.15625 C 212.789062 240.761719 213.1875 240.496094 214.3125 240.761719 C 215.507812 241.09375 215.574219 241.027344 214.710938 240.296875 C 213.253906 239.105469 213.847656 237.113281 215.574219 237.046875 C 216.4375 236.980469 216.636719 236.847656 216.039062 236.714844 C 215.242188 236.449219 215.042969 234.921875 214.976562 228.285156 C 214.910156 221.382812 214.710938 219.523438 213.253906 215.34375 C 210.664062 208.042969 206.679688 203.726562 204.558594 205.851562 C 203.164062 207.246094 202.167969 206.582031 200.175781 202.796875 L 198.121094 199.015625 L 199.710938 197.355469 C 201.902344 195.03125 203.960938 190.652344 204.492188 187.402344 C 204.757812 185.542969 205.289062 184.679688 206.019531 184.613281 C 206.8125 184.613281 206.746094 184.480469 205.753906 184.015625 C 204.824219 183.617188 205.820312 183.417969 209.070312 183.351562 C 217.101562 183.285156 221.679688 179.96875 226.261719 170.941406 C 230.242188 162.910156 230.507812 159.457031 226.992188 159.457031 C 225.199219 159.457031 223.804688 161.183594 220.820312 167.15625 C 218.230469 172.335938 215.707031 175.320312 212.921875 176.449219 C 209.402344 177.976562 208.671875 177.710938 209.535156 175.386719 C 210 173.925781 210 172.53125 209.46875 170.410156 C 208.539062 166.691406 208.539062 166.757812 209.933594 166.757812 C 213.980469 166.757812 221.878906 160.453125 224.070312 155.609375 C 224.734375 154.082031 225.332031 153.617188 226.128906 153.882812 C 227.523438 154.28125 227.722656 153.152344 226.394531 152.621094 C 224.867188 152.023438 225.863281 149.371094 227.390625 149.835938 C 228.121094 150.097656 228.652344 149.96875 228.652344 149.570312 C 228.652344 149.171875 228.253906 148.839844 227.722656 148.839844 C 227.058594 148.839844 226.859375 147.445312 226.859375 142.664062 C 226.859375 133.042969 223.804688 123.351562 219.558594 119.636719 C 218.363281 118.507812 217.035156 117.644531 216.703125 117.644531 C 216.304688 117.644531 214.84375 118.707031 213.386719 120.03125 L 210.730469 122.488281 L 206.878906 121.691406 C 204.824219 121.292969 200.441406 120.761719 197.257812 120.496094 C 191.546875 120.097656 191.414062 120.03125 190.355469 118.042969 C 188.03125 113.394531 185.707031 112.53125 181.660156 114.988281 Z M 186.96875 116.117188 C 187.566406 116.78125 188.496094 118.242188 189.027344 119.371094 C 190.089844 121.425781 190.222656 121.425781 196.328125 121.890625 C 199.710938 122.15625 204.558594 122.753906 207.078125 123.285156 L 211.660156 124.28125 L 213.585938 121.957031 C 216.039062 118.90625 217.566406 119.039062 220.023438 122.421875 C 223.605469 127.335938 225.929688 137.953125 225 144.855469 C 224.601562 147.511719 224.269531 148.175781 223.273438 148.175781 C 222.609375 148.175781 222.011719 148.441406 222.011719 148.839844 C 222.011719 149.171875 222.476562 149.503906 223.007812 149.503906 C 223.539062 149.503906 224.003906 149.96875 224.003906 150.496094 C 224.003906 151.09375 223.605469 151.292969 223.007812 151.09375 C 222.476562 150.828125 222.011719 151.027344 222.011719 151.425781 C 222.011719 151.824219 222.34375 152.15625 222.675781 152.15625 C 223.671875 152.15625 221.613281 155.808594 218.960938 158.726562 C 215.839844 162.246094 210.929688 164.238281 204.757812 164.570312 L 199.777344 164.902344 L 197.921875 161.847656 C 195.53125 157.996094 190.421875 153.484375 188.429688 153.484375 C 186.636719 153.484375 184.910156 155.078125 184.046875 157.597656 C 183.652344 158.59375 182.988281 159.457031 182.523438 159.457031 C 182.058594 159.457031 181.195312 159.65625 180.597656 159.855469 C 179.867188 160.121094 179.203125 159.589844 178.40625 158.195312 C 177.742188 157.070312 176.28125 155.808594 175.15625 155.34375 C 172.699219 154.480469 171.835938 153.152344 170.972656 149.503906 C 170.507812 147.3125 170.574219 146.714844 171.304688 146.382812 C 171.835938 146.183594 172.234375 145.785156 172.234375 145.453125 C 172.234375 145.1875 171.769531 145.054688 171.238281 145.253906 C 170.640625 145.519531 170.242188 145.253906 170.242188 144.589844 C 170.242188 143.925781 170.773438 143.527344 171.703125 143.527344 C 172.5 143.527344 172.898438 143.328125 172.632812 142.996094 C 172.367188 142.730469 171.769531 142.53125 171.371094 142.53125 C 170.441406 142.53125 170.640625 140.078125 171.96875 134.636719 C 173.828125 127.53125 178.671875 119.4375 182.855469 116.582031 C 185.574219 114.65625 185.707031 114.65625 186.96875 116.117188 Z M 190.621094 156.140625 C 193.007812 157.597656 198.652344 164.835938 199.046875 167.023438 C 199.246094 167.753906 199.511719 170.078125 199.710938 172.070312 C 199.910156 174.191406 200.640625 176.449219 201.4375 177.511719 C 203.03125 179.636719 203.164062 180.695312 201.769531 180.695312 C 201.238281 180.695312 200.773438 180.960938 200.773438 181.292969 C 200.773438 181.625 201.371094 181.757812 202.101562 181.558594 C 203.03125 181.292969 203.429688 181.558594 203.429688 182.289062 C 203.429688 182.886719 202.898438 183.351562 202.300781 183.351562 C 201.371094 183.351562 201.304688 183.484375 201.96875 183.949219 C 204.09375 185.277344 200.042969 194.4375 195.929688 197.554688 C 193.140625 199.679688 188.828125 201.605469 183.847656 202.929688 L 179.933594 203.925781 L 178.339844 201.9375 C 176.152344 199.148438 173.496094 199.414062 169.777344 202.796875 C 166.527344 205.71875 156.304688 202.070312 152.921875 196.691406 C 151.128906 193.90625 151.0625 193.574219 152.125 192.84375 C 153.121094 192.046875 153.121094 191.980469 151.792969 191.980469 C 150.066406 191.980469 149.800781 189.988281 151.527344 189.921875 C 152.324219 189.921875 152.257812 189.722656 151.0625 189.257812 C 149.535156 188.660156 149.535156 188.59375 149.800781 180.164062 C 150.066406 173.792969 150.464844 170.808594 151.527344 167.820312 C 153.121094 163.375 155.90625 159.457031 157.433594 159.457031 C 158.03125 159.457031 159.425781 160.519531 160.6875 161.78125 C 161.878906 163.042969 163.207031 164.105469 163.605469 164.105469 C 164.003906 164.105469 164.800781 164.570312 165.332031 165.097656 C 167.457031 167.15625 174.957031 165.5625 177.476562 162.511719 C 178.007812 161.914062 179.070312 161.449219 179.933594 161.449219 C 182.457031 161.449219 184.710938 160.253906 185.175781 158.660156 C 185.707031 157.070312 187.367188 154.8125 188.097656 154.8125 C 188.296875 154.8125 189.492188 155.410156 190.621094 156.140625 Z M 175.089844 156.738281 C 177.34375 157.597656 178.007812 159.855469 176.546875 161.449219 C 175.886719 162.179688 175.15625 162.578125 174.824219 162.378906 C 174.492188 162.246094 173.695312 162.644531 172.898438 163.441406 C 171.4375 164.902344 170.242188 165.164062 170.242188 163.972656 C 170.242188 163.574219 169.84375 163.773438 169.3125 164.4375 C 168.519531 165.496094 168.253906 165.5625 167.324219 164.835938 C 164.867188 162.777344 166.792969 158.527344 170.90625 156.871094 C 173.03125 156.007812 173.164062 156.007812 175.089844 156.738281 Z M 227.390625 164.503906 C 226.527344 167.753906 222.609375 174.324219 219.824219 177.3125 C 217.035156 180.230469 214.246094 181.359375 209.800781 181.359375 C 206.746094 181.359375 206.21875 181.160156 206.347656 180.164062 C 206.480469 179.304688 207.34375 178.972656 209.800781 178.707031 C 211.59375 178.507812 213.652344 177.976562 214.445312 177.578125 C 216.570312 176.382812 220.421875 171.804688 222.078125 168.617188 C 224.867188 163.242188 226.726562 160.585938 227.457031 161.316406 C 227.855469 161.714844 227.855469 162.84375 227.390625 164.503906 Z M 205.820312 166.625 C 208.472656 168.417969 208.871094 174.390625 206.480469 176.648438 C 204.492188 178.507812 202.433594 178.242188 202.5 176.183594 C 202.5 175.386719 202.300781 174.722656 202.035156 174.722656 C 201.304688 174.722656 200.90625 171.40625 201.570312 171.007812 C 201.96875 170.742188 201.96875 170.410156 201.503906 170.078125 C 200.972656 169.746094 200.90625 169.148438 201.371094 167.886719 C 202.035156 166.09375 204.160156 165.496094 205.820312 166.625 Z M 197.191406 201.738281 C 198.585938 203.59375 198.320312 203.925781 195.132812 203.925781 C 192.742188 203.925781 191.679688 204.324219 190.421875 205.585938 C 189.09375 206.914062 188.097656 207.246094 185.175781 207.246094 C 180.332031 207.246094 180.132812 206.316406 184.710938 205.386719 C 186.769531 204.921875 190.15625 203.726562 192.144531 202.664062 C 196.59375 200.277344 196.128906 200.410156 197.191406 201.738281 Z M 178.273438 204.921875 C 179.535156 207.84375 179.601562 207.84375 183.71875 208.375 C 185.972656 208.640625 188.03125 208.773438 188.363281 208.707031 C 188.628906 208.640625 188.828125 208.972656 188.828125 209.503906 C 188.828125 210.761719 191.945312 213.21875 193.539062 213.21875 C 194.535156 213.21875 194.800781 213.75 194.800781 215.675781 C 194.800781 221.382812 198.847656 224.371094 208.472656 226.027344 L 213.71875 226.890625 L 213.519531 229.546875 C 213.1875 234.191406 212.65625 235.917969 211.660156 235.519531 C 211.195312 235.320312 210.597656 235.453125 210.398438 235.785156 C 210.132812 236.183594 210.464844 236.449219 210.996094 236.449219 C 211.59375 236.449219 212.058594 236.914062 212.058594 237.511719 C 212.058594 238.175781 211.660156 238.441406 211.0625 238.175781 C 210.53125 237.976562 210.066406 238.109375 210.066406 238.375 C 210.066406 238.707031 210.398438 239.105469 210.863281 239.238281 C 211.992188 239.636719 209.203125 243.882812 205.953125 246.671875 C 202.101562 249.988281 197.789062 251.25 190.554688 251.183594 C 176.945312 251.117188 164.269531 245.542969 160.886719 238.109375 C 159.292969 234.589844 159.226562 231.804688 160.820312 231.738281 C 161.878906 231.671875 161.878906 231.605469 160.820312 231.339844 C 160.15625 231.207031 159.625 230.609375 159.625 230.078125 C 159.625 229.546875 160.15625 229.082031 160.820312 229.082031 C 161.8125 229.015625 161.8125 228.949219 160.753906 228.683594 C 158.828125 228.21875 159.890625 224.105469 162.675781 220.984375 L 165 218.460938 L 172.101562 218.328125 C 178.140625 218.195312 179.535156 217.996094 181.59375 216.738281 C 184.046875 215.210938 188.03125 210.164062 187.300781 209.503906 C 187.101562 209.304688 185.308594 210.628906 183.320312 212.488281 C 179.402344 216.007812 178.40625 216.273438 169.910156 216.804688 L 165.929688 217.070312 L 165.929688 213.285156 C 165.929688 209.703125 166.0625 209.4375 169.578125 205.71875 C 174.425781 200.808594 176.347656 200.609375 178.273438 204.921875 Z M 200.375 207.3125 C 201.304688 208.441406 202.101562 209.902344 202.101562 210.5625 C 202.101562 212.089844 199.511719 213.085938 198.71875 211.824219 C 198.320312 211.160156 198.121094 211.09375 198.121094 211.691406 C 198.121094 212.886719 195.796875 212.753906 194.601562 211.558594 C 194.003906 211.027344 193.472656 210.894531 193.339844 211.226562 C 193.007812 212.222656 190.15625 210.03125 190.15625 208.773438 C 190.15625 206.582031 192.210938 205.253906 195.53125 205.253906 C 198.1875 205.253906 198.914062 205.519531 200.375 207.3125 Z M 165.929688 206.582031 C 166.660156 207.777344 164.734375 209.902344 163.273438 209.503906 C 161.480469 208.90625 161.414062 208.839844 161.945312 207.3125 C 162.410156 205.851562 165.132812 205.320312 165.929688 206.582031 Z M 208.738281 209.238281 C 210.597656 211.824219 212.65625 217.929688 213.1875 222.378906 L 213.585938 225.894531 L 211.328125 224.96875 C 210.066406 224.503906 207.941406 223.839844 206.546875 223.574219 C 205.15625 223.308594 202.765625 222.578125 201.171875 221.914062 C 198.847656 220.851562 198.121094 220.121094 196.925781 217.269531 L 195.53125 213.882812 L 197.988281 213.882812 C 201.238281 213.882812 203.429688 212.355469 203.429688 209.96875 C 203.429688 207.710938 203.828125 207.246094 205.820312 207.246094 C 206.746094 207.246094 207.875 208.042969 208.738281 209.238281 Z M 164.136719 211.359375 C 165.066406 212.289062 165.199219 215.210938 164.335938 215.210938 C 164.003906 215.210938 163.605469 216.074219 163.40625 217.203125 C 163.140625 218.261719 162.542969 219.191406 162.011719 219.191406 C 161.546875 219.191406 160.953125 219.789062 160.753906 220.519531 C 159.957031 223.574219 156.304688 220.71875 156.304688 217.070312 C 156.304688 214.746094 159.890625 210.5625 161.878906 210.5625 C 162.675781 210.5625 163.671875 210.894531 164.136719 211.359375 Z M 152.988281 246.9375 C 152.988281 250.453125 153.253906 254.371094 153.585938 255.5625 C 154.179688 257.621094 154.113281 257.6875 152.390625 257.6875 C 150.796875 257.6875 150.398438 257.355469 150.066406 255.628906 C 149.867188 254.503906 149.667969 252.378906 149.667969 250.917969 C 149.667969 248.859375 149.867188 248.328125 150.664062 248.59375 C 151.195312 248.859375 151.792969 248.726562 151.992188 248.394531 C 152.257812 247.996094 151.925781 247.730469 151.394531 247.730469 C 150.132812 247.730469 149.933594 244.214844 150.996094 241.425781 C 152.191406 238.242188 152.988281 240.429688 152.988281 246.9375 Z M 175.289062 251.648438 C 183.1875 254.304688 192.078125 254.902344 197.988281 253.308594 L 199.578125 252.84375 L 197.855469 254.570312 C 196.925781 255.496094 196.128906 256.625 196.128906 257.023438 C 196.128906 257.421875 191.878906 257.6875 183.585938 257.6875 L 171.105469 257.6875 L 170.640625 255.695312 C 170.375 254.171875 169.644531 253.375 167.921875 252.710938 C 166.660156 252.179688 165 251.714844 164.269531 251.714844 C 162.675781 251.714844 162.675781 251.714844 164.003906 248.792969 L 165.132812 246.539062 L 168.1875 248.394531 C 169.84375 249.457031 173.097656 250.917969 175.289062 251.648438 Z M 167.125 253.773438 C 168.980469 254.769531 169.578125 255.628906 169.578125 257.554688 C 169.578125 259.148438 166.925781 260.742188 166.195312 259.546875 C 165.929688 259.082031 165.597656 259.148438 165.332031 259.613281 C 164.734375 260.542969 161.613281 260.542969 161.613281 259.613281 C 161.613281 259.082031 161.347656 259.082031 160.753906 259.613281 C 160.089844 260.144531 159.558594 260.078125 158.628906 259.414062 C 157.566406 258.683594 157.566406 258.351562 158.363281 256.625 C 159.890625 253.441406 164.003906 252.113281 167.125 253.773438 Z M 206.746094 254.703125 C 209.269531 256.027344 210.132812 258.882812 208.40625 260.144531 C 207.410156 260.808594 207.011719 260.808594 206.546875 260.144531 C 206.085938 259.546875 205.886719 259.546875 205.621094 260.144531 C 205.289062 261.074219 202.101562 261.339844 202.101562 260.410156 C 202.101562 260.144531 201.4375 260.011719 200.574219 260.144531 C 198.585938 260.542969 197.191406 258.882812 197.722656 256.824219 C 198.453125 253.90625 203.164062 252.84375 206.746094 254.703125 Z M 206.746094 254.703125 " fill-opacity="1" fill-rule="nonzero"/></g><path fill="#000000" d="M 182.855469 120.761719 C 181.128906 122.953125 181.925781 123.882812 184.710938 122.886719 C 186.96875 122.089844 187.367188 121.09375 186.039062 119.769531 C 184.910156 118.640625 184.445312 118.773438 182.855469 120.761719 Z M 182.855469 120.761719 " fill-opacity="1" fill-rule="nonzero"/><path fill="#000000" d="M 215.507812 123.75 C 214.179688 125.078125 214.578125 126.074219 216.703125 126.9375 C 219.292969 127.996094 219.757812 127.53125 218.695312 124.945312 C 217.832031 122.820312 216.835938 122.421875 215.507812 123.75 Z M 215.507812 123.75 " fill-opacity="1" fill-rule="nonzero"/><path fill="#000000" d="M 183.519531 142.136719 C 183.519531 142.46875 184.046875 142.929688 184.710938 143.0625 C 185.574219 143.328125 185.441406 143.394531 184.378906 143.460938 C 181.726562 143.59375 182.722656 144.65625 185.90625 145.1875 C 189.757812 145.71875 190.355469 145.121094 187.832031 143.128906 C 185.839844 141.539062 183.519531 141.007812 183.519531 142.136719 Z M 183.519531 142.136719 " fill-opacity="1" fill-rule="nonzero"/><path fill="#000000" d="M 206.152344 145.71875 C 203.628906 146.980469 204.160156 147.84375 207.609375 148.042969 C 210.730469 148.242188 212.058594 147.179688 209.269531 146.648438 L 207.742188 146.382812 L 209.269531 146.25 C 210.066406 146.25 210.730469 145.851562 210.730469 145.519531 C 210.730469 144.589844 208.074219 144.722656 206.152344 145.71875 Z M 206.152344 145.71875 " fill-opacity="1" fill-rule="nonzero"/><path fill="#000000" d="M 196.460938 146.78125 C 196.261719 147.113281 196.394531 147.644531 196.792969 147.84375 C 197.191406 148.109375 197.324219 148.839844 197.125 149.570312 C 196.859375 150.296875 196.992188 150.828125 197.390625 150.828125 C 197.789062 150.828125 198.121094 150.230469 198.121094 149.570312 C 198.121094 148.839844 198.453125 148.042969 198.78125 147.84375 C 199.644531 147.3125 198.980469 146.183594 197.789062 146.183594 C 197.257812 146.183594 196.726562 146.449219 196.460938 146.78125 Z M 196.460938 146.78125 " fill-opacity="1" fill-rule="nonzero"/><path fill="#000000" d="M 187.765625 159.125 C 187.035156 160.917969 188.03125 162.113281 190.15625 162.113281 C 192.410156 162.113281 192.808594 160.917969 190.953125 159.257812 C 189.425781 157.863281 188.230469 157.796875 187.765625 159.125 Z M 187.765625 159.125 " fill-opacity="1" fill-rule="nonzero"/><path fill="#000000" d="M 156.4375 164.238281 C 155.441406 165.496094 155.175781 167.554688 156.039062 167.886719 C 157.300781 168.285156 159.890625 165.761719 159.425781 164.570312 C 158.894531 163.242188 157.433594 163.109375 156.4375 164.238281 Z M 156.4375 164.238281 " fill-opacity="1" fill-rule="nonzero"/><path fill="#000000" d="M 185.574219 181.625 C 185.109375 182.15625 184.84375 183.285156 184.976562 184.148438 C 185.109375 185.34375 185.574219 185.675781 187.101562 185.675781 C 189.492188 185.675781 190.820312 183.882812 189.757812 182.15625 C 188.828125 180.695312 186.570312 180.363281 185.574219 181.625 Z M 185.574219 181.625 " fill-opacity="1" fill-rule="nonzero"/><path fill="#000000" d="M 163.074219 184.8125 C 160.820312 187.070312 163.472656 190.785156 166.261719 189.324219 C 167.988281 188.394531 167.988281 185.609375 166.328125 184.679688 C 164.667969 183.816406 164.070312 183.816406 163.074219 184.8125 Z M 163.074219 184.8125 " fill-opacity="1" fill-rule="nonzero"/><path fill="#000000" d="M 177.011719 185.875 C 176.347656 186.339844 176.347656 186.804688 177.210938 188.394531 C 178.074219 190.054688 178.207031 190.121094 178.207031 188.859375 C 178.207031 188.0625 178.40625 187.003906 178.605469 186.40625 C 179.070312 185.277344 178.40625 185.078125 177.011719 185.875 Z M 177.011719 185.875 " fill-opacity="1" fill-rule="nonzero"/><path fill="#000000" d="M 172.964844 206.515625 C 170.90625 208.574219 171.105469 210.03125 173.429688 209.503906 C 174.425781 209.238281 175.421875 208.90625 175.753906 208.773438 C 176.546875 208.308594 176.28125 206.78125 175.289062 205.984375 C 174.492188 205.320312 174.027344 205.453125 172.964844 206.515625 Z M 172.964844 206.515625 " fill-opacity="1" fill-rule="nonzero"/><path fill="#000000" d="M 168.914062 228.152344 C 167.855469 229.414062 168.585938 230.410156 169.710938 229.28125 C 171.503906 227.488281 175.488281 228.75 176.414062 231.273438 C 176.613281 231.9375 176.878906 231.9375 177.542969 231.339844 C 178.207031 230.742188 178.007812 230.210938 176.679688 228.882812 C 174.691406 226.890625 170.308594 226.492188 168.914062 228.152344 Z M 168.914062 228.152344 " fill-opacity="1" fill-rule="nonzero"/><path fill="#000000" d="M 195.464844 232.136719 C 194.269531 233.59375 194.933594 233.859375 197.390625 232.929688 C 199.179688 232.269531 199.84375 232.335938 201.570312 233.328125 C 204.027344 234.722656 204.757812 234.324219 203.097656 232.46875 C 201.636719 230.808594 196.726562 230.609375 195.464844 232.136719 Z M 195.464844 232.136719 " fill-opacity="1" fill-rule="nonzero"/><path fill="#000000" d="M 185.308594 232.929688 C 185.042969 233.128906 185.175781 233.726562 185.507812 234.125 C 186.238281 235.054688 185.707031 237.113281 184.777344 237.113281 C 184.445312 237.113281 184.179688 236.648438 184.179688 236.117188 C 184.179688 235.585938 183.914062 235.121094 183.519531 235.121094 C 182.523438 235.121094 182.722656 236.847656 183.78125 237.710938 C 184.445312 238.308594 184.84375 238.308594 185.175781 237.777344 C 185.507812 237.246094 185.90625 237.246094 186.570312 237.84375 C 187.765625 238.839844 189.492188 238.109375 189.492188 236.648438 C 189.425781 235.519531 189.359375 235.519531 188.496094 236.714844 C 187.566406 237.910156 187.5 237.910156 187.101562 236.78125 C 186.835938 236.117188 186.96875 235.054688 187.367188 234.457031 C 187.964844 233.527344 187.898438 233.195312 187.101562 232.863281 C 185.839844 232.402344 185.839844 232.402344 185.308594 232.929688 Z M 185.308594 232.929688 " fill-opacity="1" fill-rule="nonzero"/><path fill="#000000" d="M 204.292969 211.691406 C 204.027344 212.355469 204.425781 213.21875 205.355469 214.015625 C 207.542969 215.742188 208.9375 215.609375 208.339844 213.683594 C 207.410156 210.628906 205.15625 209.4375 204.292969 211.691406 Z M 204.292969 211.691406 " fill-opacity="1" fill-rule="nonzero"/><path fill="#000000" d="M 131.746094 133.640625 C 128.363281 135.03125 123.253906 139.480469 121.859375 142.335938 C 120.730469 144.722656 120.597656 145.652344 121.128906 147.644531 C 122.65625 152.953125 126.769531 155.875 131.679688 155.210938 C 135.199219 154.679688 136.195312 154.613281 138.054688 154.945312 C 139.046875 155.078125 139.445312 154.746094 139.578125 153.617188 C 139.710938 152.753906 140.707031 151.226562 141.835938 150.230469 C 143.5625 148.707031 143.960938 147.777344 144.226562 144.65625 C 144.558594 140.078125 143.628906 137.554688 140.574219 134.902344 C 138.1875 132.777344 135.066406 132.3125 131.746094 133.640625 Z M 139.511719 135.894531 C 140.242188 136.425781 141.4375 138.152344 142.035156 139.8125 C 143.5625 143.726562 142.898438 147.113281 140.308594 149.570312 C 139.246094 150.5625 138.386719 152.023438 138.386719 152.820312 C 138.386719 154.082031 138.253906 154.148438 137.390625 153.484375 C 136.660156 152.886719 135.929688 152.886719 134.335938 153.417969 C 131.414062 154.414062 130.023438 154.347656 127.300781 153.019531 C 124.445312 151.691406 122.457031 148.640625 122.457031 145.652344 C 122.457031 142.863281 126.570312 138.285156 131.28125 135.894531 C 134.867188 134.105469 136.726562 134.105469 139.511719 135.894531 Z M 139.511719 135.894531 " fill-opacity="1" fill-rule="nonzero"/><path fill="#000000" d="M 134.402344 140.941406 C 134.402344 142.003906 137.058594 146.183594 137.65625 146.183594 C 138.980469 146.183594 138.78125 145.1875 137.191406 142.796875 C 135.398438 140.210938 134.402344 139.546875 134.402344 140.941406 Z M 134.402344 140.941406 " fill-opacity="1" fill-rule="nonzero"/><path fill="#000000" d="M 129.757812 142.003906 C 129.757812 142.203125 130.222656 142.929688 130.753906 143.527344 C 131.679688 144.523438 131.679688 144.722656 130.753906 145.519531 C 129.957031 146.183594 129.691406 146.117188 129.359375 145.253906 C 128.960938 144.257812 127.101562 143.726562 127.101562 144.589844 C 127.101562 145.519531 131.28125 150.164062 132.144531 150.164062 C 133.339844 150.164062 133.339844 149.238281 132.078125 148.175781 C 131.28125 147.511719 131.21875 147.113281 131.746094 146.582031 C 132.277344 146.050781 132.742188 146.183594 133.339844 146.980469 C 134.136719 148.109375 135.730469 148.640625 135.730469 147.84375 C 135.730469 146.914062 131.347656 141.605469 130.621094 141.539062 C 130.15625 141.539062 129.757812 141.738281 129.757812 142.003906 Z M 129.757812 142.003906 " fill-opacity="1" fill-rule="nonzero"/><path fill="#000000" d="M 227.257812 195.097656 C 224.734375 197.289062 223.339844 200.34375 223.339844 203.859375 C 223.339844 205.984375 223.804688 206.980469 225.796875 209.039062 C 227.125 210.429688 228.253906 212.15625 228.253906 212.886719 C 228.320312 213.949219 228.847656 214.214844 230.972656 214.347656 C 232.433594 214.414062 234.558594 214.679688 235.753906 214.878906 C 240.332031 215.875 245.640625 212.089844 247.300781 206.714844 C 248.761719 201.738281 244.511719 196.492188 237.078125 194.304688 C 232.101562 192.84375 229.777344 193.042969 227.257812 195.097656 Z M 239.800781 197.355469 C 244.179688 199.480469 245.90625 201.671875 245.90625 204.988281 C 245.90625 209.902344 239.535156 214.746094 235.023438 213.21875 C 233.761719 212.820312 231.96875 212.6875 231.039062 212.953125 C 229.644531 213.285156 229.378906 213.152344 229.710938 212.289062 C 229.976562 211.625 229.378906 210.628906 228.121094 209.570312 C 223.273438 205.519531 224.335938 197.222656 229.976562 195.097656 C 231.703125 194.4375 235.488281 195.296875 239.800781 197.355469 Z M 239.800781 197.355469 " fill-opacity="1" fill-rule="nonzero"/><path fill="#000000" d="M 231.769531 199.148438 C 230.441406 200.609375 230.375 202.203125 231.371094 206.316406 C 232.035156 208.839844 232.300781 209.238281 233.5625 208.90625 C 240.332031 207.046875 243.121094 204.855469 241.859375 202.46875 C 241.0625 201.007812 238.40625 200.875 237.210938 202.335938 C 236.414062 203.328125 236.480469 203.394531 237.675781 202.996094 C 239.402344 202.46875 240.332031 204.125 238.9375 205.253906 C 237.675781 206.316406 234.292969 207.179688 233.429688 206.648438 C 232.234375 205.917969 231.902344 202.269531 232.964844 200.875 C 233.894531 199.613281 233.894531 199.613281 234.957031 200.941406 C 235.953125 202.203125 235.953125 202.203125 235.820312 200.277344 C 235.554688 197.886719 233.496094 197.289062 231.769531 199.148438 Z M 231.769531 199.148438 " fill-opacity="1" fill-rule="nonzero"/><g clip-path="url(#436d9b17a0)"><path fill="#97a7cd" d="M 143.925781 272.113281 C 151.296875 272.113281 157.269531 278.085938 157.269531 285.457031 C 157.269531 292.828125 151.296875 298.804688 143.925781 298.804688 C 136.554688 298.804688 130.578125 292.828125 130.578125 285.457031 C 130.578125 278.085938 136.554688 272.113281 143.925781 272.113281 " fill-opacity="1" fill-rule="nonzero"/></g><path fill="#97a7cd" d="M 185.488281 272.113281 C 192.855469 272.113281 198.832031 278.085938 198.832031 285.457031 C 198.832031 292.828125 192.855469 298.804688 185.488281 298.804688 C 178.117188 298.804688 172.140625 292.828125 172.140625 285.457031 C 172.140625 278.085938 178.117188 272.113281 185.488281 272.113281 " fill-opacity="1" fill-rule="nonzero"/><path fill="#97a7cd" d="M 226.902344 272.113281 C 234.269531 272.113281 240.246094 278.085938 240.246094 285.457031 C 240.246094 292.828125 234.269531 298.804688 226.902344 298.804688 C 219.53125 298.804688 213.554688 292.828125 213.554688 285.457031 C 213.554688 278.085938 219.53125 272.113281 226.902344 272.113281 " fill-opacity="1" fill-rule="nonzero"/><g clip-path="url(#8adcb9144c)"><path fill="#3f58a4" d="M 159.660156 284.144531 C 159.59375 289.746094 155.902344 294.601562 150.515625 296.152344 C 145.105469 297.710938 139.308594 295.183594 136.449219 290.429688 C 133.542969 285.597656 134.515625 279.3125 138.398438 275.339844 C 142.335938 271.308594 148.660156 270.636719 153.492188 273.390625 C 157.328125 275.578125 159.605469 279.777344 159.660156 284.144531 C 159.671875 285.292969 161.457031 285.296875 161.441406 284.144531 C 161.375 278.863281 158.5 274.0625 153.84375 271.550781 C 149.164062 269.023438 143.292969 269.503906 138.972656 272.53125 C 134.691406 275.535156 132.398438 280.855469 133.101562 286.03125 C 133.8125 291.257812 137.34375 295.554688 142.210938 297.476562 C 146.554688 299.195312 151.652344 298.410156 155.4375 295.757812 C 159.210938 293.109375 161.386719 288.722656 161.441406 284.144531 C 161.453125 282.996094 159.671875 282.996094 159.660156 284.144531 " fill-opacity="1" fill-rule="nonzero"/></g><g clip-path="url(#1f8266a5e8)"><path fill="#3f58a4" d="M 201.21875 284.144531 C 201.152344 289.746094 197.464844 294.601562 192.078125 296.152344 C 186.667969 297.710938 180.871094 295.183594 178.011719 290.429688 C 175.105469 285.597656 176.078125 279.3125 179.960938 275.339844 C 183.898438 271.308594 190.222656 270.636719 195.050781 273.390625 C 198.890625 275.578125 201.167969 279.777344 201.21875 284.144531 C 201.234375 285.292969 203.015625 285.296875 203 284.144531 C 202.9375 278.863281 200.058594 274.0625 195.402344 271.550781 C 190.726562 269.023438 184.855469 269.503906 180.535156 272.53125 C 176.25 275.535156 173.960938 280.855469 174.660156 286.03125 C 175.371094 291.257812 178.902344 295.554688 183.773438 297.476562 C 188.117188 299.191406 193.214844 298.410156 196.996094 295.757812 C 200.773438 293.109375 202.945312 288.722656 203 284.144531 C 203.015625 282.996094 201.234375 282.996094 201.21875 284.144531 " fill-opacity="1" fill-rule="nonzero"/></g><g clip-path="url(#de5774ecb9)"><path fill="#3f58a4" d="M 242.632812 284.144531 C 242.566406 289.746094 238.878906 294.601562 233.492188 296.152344 C 228.082031 297.710938 222.285156 295.183594 219.425781 290.429688 C 216.519531 285.597656 217.488281 279.3125 221.375 275.339844 C 225.3125 271.308594 231.636719 270.636719 236.464844 273.390625 C 240.304688 275.578125 242.582031 279.777344 242.632812 284.144531 C 242.652344 285.292969 244.433594 285.296875 244.414062 284.144531 C 244.351562 278.863281 241.472656 274.0625 236.816406 271.550781 C 232.140625 269.023438 226.269531 269.503906 221.949219 272.53125 C 217.664062 275.535156 215.375 280.855469 216.074219 286.03125 C 216.785156 291.257812 220.316406 295.554688 225.1875 297.476562 C 229.53125 299.191406 234.628906 298.410156 238.410156 295.757812 C 242.1875 293.109375 244.359375 288.722656 244.414062 284.144531 C 244.433594 282.996094 242.652344 282.996094 242.632812 284.144531 " fill-opacity="1" fill-rule="nonzero"/></g></svg>