<svg xmlns="http://www.w3.org/2000/svg" xmlns:xlink="http://www.w3.org/1999/xlink" width="500" zoomAndPan="magnify" viewBox="0 0 375 374.999991" height="500" preserveAspectRatio="xMidYMid meet" version="1.0"><defs><clipPath id="1aaa84f205"><path d="M 124.5 147.953125 L 274.5 147.953125 L 274.5 258.953125 L 124.5 258.953125 Z M 124.5 147.953125 " clip-rule="nonzero"/></clipPath></defs><g clip-path="url(#1aaa84f205)"><path fill="#eba396" d="M 147.71875 153.039062 L 157.222656 151.65625 L 161.460938 151.429688 C 161.460938 151.429688 167.945312 149.820312 171.957031 149.113281 C 175.96875 148.40625 197.445312 149.113281 197.445312 149.113281 L 207.203125 147.953125 C 207.203125 147.953125 215.199219 148.664062 217.703125 148.664062 C 220.207031 148.664062 228.679688 150.527344 228.679688 150.527344 L 239.210938 150.015625 C 239.210938 150.015625 257.667969 154.003906 261.425781 154.230469 C 265.179688 154.457031 269.417969 152.621094 271.40625 155.164062 C 273.398438 157.707031 272.660156 160.507812 271.152344 163.5 C 269.640625 166.492188 269.675781 171.351562 269.675781 171.351562 C 269.675781 171.351562 270.925781 176.917969 271.921875 180.621094 C 272.917969 184.320312 271.824219 195.90625 271.824219 195.90625 L 274.167969 203.535156 C 274.167969 203.535156 274.425781 210.261719 274.167969 213.027344 C 273.910156 215.796875 269.675781 230.632812 268.679688 234.335938 C 267.683594 238.035156 270.414062 241.960938 271.441406 245.921875 C 272.46875 249.878906 270.445312 251.714844 266.433594 252.164062 C 262.417969 252.613281 256.449219 252.390625 253.945312 252.164062 C 251.441406 251.9375 235.195312 256.574219 235.195312 256.574219 L 214.523438 256.15625 L 203.222656 257.988281 L 189.164062 258.953125 L 168.234375 256.15625 C 168.234375 256.15625 155.167969 252.261719 150.160156 250.425781 C 145.152344 248.589844 134.492188 251.261719 131.25 251.261719 C 128.007812 251.261719 126.5 247.785156 126.980469 245.695312 C 127.464844 243.601562 129.484375 240.835938 130.222656 237.808594 C 130.960938 234.785156 129.230469 230.632812 129.230469 230.632812 L 126.980469 222.296875 C 126.980469 222.296875 124.992188 213.511719 124.992188 209.777344 C 124.992188 206.078125 124.574219 193.332031 124.574219 193.332031 C 124.574219 193.332031 126.980469 182.90625 128.234375 179.6875 C 129.484375 176.46875 128.972656 171.800781 128.972656 167.167969 C 128.972656 162.535156 126.5 159.992188 127.496094 156.742188 C 128.492188 153.488281 135.746094 153.746094 135.746094 153.746094 C 137.738281 153.746094 147.71875 153.039062 147.71875 153.039062 Z M 147.71875 153.039062 " fill-opacity="1" fill-rule="nonzero"/></g><path fill="#fefff3" d="M 155.390625 197.292969 C 151.570312 197.292969 149.101562 196.230469 145.152344 193.460938 L 146.980469 188.246094 C 150.738281 190.46875 153.113281 191.628906 155.007812 191.628906 C 157.640625 191.628906 160.785156 190.660156 160.785156 188.503906 C 160.785156 186.15625 156.804688 185.898438 155.101562 185.707031 C 150.738281 185.160156 145.023438 184.160156 145.023438 177.851562 C 145.023438 170.742188 151.699219 169.324219 155.554688 169.324219 C 159.117188 169.324219 162.328125 170.484375 165.824219 172.960938 L 164.058594 177.851562 C 161.074219 175.890625 158.183594 174.957031 155.554688 174.957031 C 151.445312 174.957031 150.480469 176.597656 150.480469 177.59375 C 150.480469 179.527344 154.878906 179.945312 156.066406 179.945312 C 160.078125 180.363281 166.308594 181.136719 166.308594 188.472656 C 166.339844 195.648438 159.566406 197.292969 155.390625 197.292969 Z M 169.902344 168.421875 L 175.421875 168.421875 L 175.421875 196.9375 L 169.902344 196.9375 Z M 189.035156 192.238281 C 191.28125 192.238281 193.335938 191.980469 195.167969 190.726562 L 196.804688 194.683594 C 195.039062 196.324219 192.050781 197.324219 188.84375 197.324219 C 183.449219 197.324219 178.921875 194.234375 178.921875 187.507812 C 178.921875 180.847656 183.128906 177.5625 188.714844 177.5625 C 194.652344 177.5625 198.152344 181.457031 198.054688 188.988281 L 184.667969 188.988281 C 185.117188 190.855469 186.851562 192.238281 189.035156 192.238281 Z M 188.714844 182.199219 C 186.917969 182.199219 185.601562 183.355469 184.988281 185.160156 L 192.535156 185.160156 C 192.40625 184.03125 191.730469 182.199219 188.714844 182.199219 Z M 211.054688 192.238281 C 213.304688 192.238281 215.359375 191.980469 217.1875 190.726562 L 218.824219 194.683594 C 217.058594 196.324219 214.074219 197.324219 210.863281 197.324219 C 205.472656 197.324219 200.945312 194.234375 200.945312 187.507812 C 200.945312 180.847656 205.148438 177.5625 210.734375 177.5625 C 216.675781 177.5625 220.171875 181.457031 220.078125 188.988281 L 206.691406 188.988281 C 207.140625 190.855469 208.875 192.238281 211.054688 192.238281 Z M 210.703125 182.199219 C 208.90625 182.199219 207.589844 183.355469 206.980469 185.160156 L 214.523438 185.160156 C 214.425781 184.03125 213.753906 182.199219 210.703125 182.199219 Z M 233.6875 197.292969 C 232.242188 197.292969 230.382812 196.679688 229.035156 195.746094 L 229.035156 204.628906 L 223.511719 204.628906 L 223.511719 178.015625 L 229.035156 178.015625 L 229.035156 179.203125 C 230.09375 178.335938 231.921875 177.660156 233.335938 177.660156 C 238.34375 177.660156 242.835938 181.199219 242.835938 187.316406 C 242.835938 194.167969 238.726562 197.292969 233.6875 197.292969 Z M 232.820312 183.097656 C 231.410156 183.097656 229.933594 183.839844 229.035156 184.867188 L 229.035156 190.242188 C 229.996094 191.207031 231.761719 191.882812 233.144531 191.882812 C 235.710938 191.882812 237.316406 190.148438 237.316406 187.570312 C 237.316406 184.804688 235.390625 183.097656 232.820312 183.097656 Z M 166.917969 230.117188 L 162.132812 213.449219 C 160.5625 218.855469 159.308594 224.648438 157.734375 230.085938 L 153.660156 230.085938 L 145.570312 205.5625 L 145.570312 204.628906 L 151.347656 204.628906 L 156.097656 219.59375 C 157.382812 214.636719 158.410156 209.554688 159.726562 204.628906 L 164.542969 204.628906 L 169.003906 219.882812 C 170.480469 214.832031 171.796875 209.683594 173.273438 204.628906 L 178.410156 204.628906 L 178.410156 205.5625 L 170.609375 230.085938 L 166.917969 230.085938 Z M 188.167969 225.644531 C 190.320312 225.644531 192.246094 225.386719 193.976562 224.230469 L 195.550781 227.960938 C 193.882812 229.539062 191.058594 230.472656 188.007812 230.472656 C 182.902344 230.472656 178.601562 227.574219 178.601562 221.203125 C 178.601562 214.929688 182.582031 211.773438 187.847656 211.773438 C 193.464844 211.773438 196.769531 215.441406 196.707031 222.554688 L 184.058594 222.554688 C 184.476562 224.324219 186.113281 225.644531 188.167969 225.644531 Z M 187.847656 216.152344 C 186.144531 216.152344 184.925781 217.246094 184.316406 218.949219 L 191.472656 218.949219 C 191.378906 217.890625 190.703125 216.152344 187.847656 216.152344 Z M 200.140625 203.148438 L 205.375 203.148438 L 205.375 230.117188 L 200.140625 230.117188 Z M 208.714844 203.148438 L 213.945312 203.148438 L 213.945312 230.117188 L 208.714844 230.117188 Z M 208.714844 203.148438 " fill-opacity="1" fill-rule="nonzero"/><path fill="#275791" d="M 217.765625 230.023438 C 217.636719 229.699219 217.605469 229.347656 217.667969 228.992188 C 217.796875 228.316406 218.152344 227.15625 218.984375 226.386719 C 220.238281 225.226562 221.296875 224.90625 221.296875 224.90625 L 222.195312 224.808594 C 222.195312 224.808594 222.613281 222.8125 223.769531 221.910156 C 224.925781 221.011719 227.75 220.65625 227.75 220.65625 L 229.644531 221.558594 L 231.214844 222.652344 C 231.214844 222.652344 233.109375 222.394531 234.105469 222.652344 C 235.101562 222.910156 236.097656 224.324219 236.097656 224.324219 L 236.351562 225 C 236.351562 225 238.085938 225.164062 239.433594 226.257812 C 240.75 227.351562 241.105469 229.667969 241.105469 229.667969 L 240.367188 231.824219 C 240.367188 231.824219 238.953125 233.304688 237.378906 233.496094 C 235.808594 233.660156 229.097656 233.914062 229.097656 233.914062 L 225.792969 233.820312 L 221.746094 233.660156 C 221.746094 233.660156 220.171875 233.335938 219.660156 232.757812 C 219.179688 232.179688 218.441406 231.757812 217.765625 230.023438 Z M 229 219.242188 C 230.253906 219.402344 231.890625 220.976562 231.890625 220.976562 C 231.890625 220.976562 232.886719 220.882812 234.714844 221.234375 C 236.546875 221.589844 237.445312 223.070312 237.445312 223.070312 C 237.445312 223.070312 238.535156 223.390625 239.113281 223.554688 C 239.691406 223.714844 241.199219 225.289062 241.199219 225.289062 C 241.199219 225.289062 242.515625 227.542969 242.613281 229.121094 C 242.707031 230.699219 241.199219 233.273438 241.199219 233.273438 L 244.28125 233.175781 C 244.28125 233.175781 247.683594 232.339844 249.320312 231.179688 C 250.960938 230.023438 254.039062 226.933594 254.039062 226.933594 L 251.570312 226.835938 L 249.417969 225.839844 L 246.59375 224.101562 C 246.59375 224.101562 243.863281 221.203125 243.285156 220.527344 C 242.707031 219.851562 241.394531 216.859375 241.039062 215.636719 C 240.71875 214.378906 240.300781 208.910156 240.621094 207.492188 C 240.941406 206.078125 242.707031 202.34375 242.707031 202.34375 L 238.664062 203.019531 C 238.664062 203.019531 235.421875 203.503906 234.105469 204.179688 C 232.789062 204.855469 229.964844 207.332031 229.964844 207.332031 C 229.964844 207.332031 227.140625 211.324219 226.402344 213.480469 C 225.664062 215.636719 225.917969 218.949219 225.917969 218.949219 C 225.917969 218.949219 227.75 219.078125 229 219.242188 Z M 229 219.242188 " fill-opacity="1" fill-rule="nonzero"/><path fill="#3c877c" d="M 246.785156 208.363281 L 249.449219 208.136719 L 250.1875 206.625 L 250.992188 203.40625 L 251.441406 204.917969 L 252.4375 208.007812 L 253.914062 208.265625 L 257.089844 208.652344 L 255.804688 209.585938 L 252.851562 211.164062 L 254.007812 213.542969 L 255.261719 216.570312 L 253.878906 215.667969 L 250.734375 213.191406 L 249.257812 214.414062 L 246.5625 216.3125 L 247.011719 215.023438 L 248.230469 211.96875 L 246.976562 210.871094 L 244.28125 208.621094 Z M 249.417969 193.238281 L 251.34375 194.84375 L 252.242188 195.617188 L 251.375 197.839844 L 251.054688 198.773438 L 252.980469 197.421875 L 254.039062 196.519531 L 256.289062 198.289062 L 257.28125 198.933594 L 256.382812 196.746094 L 255.550781 195.039062 L 257.667969 193.914062 L 258.597656 193.238281 L 256.320312 192.945312 L 255.261719 192.753906 L 254.554688 190.53125 L 254.234375 189.4375 L 253.65625 191.757812 L 253.109375 192.851562 L 251.183594 193.011719 Z M 249.417969 193.238281 " fill-opacity="1" fill-rule="nonzero"/></svg>